<mxfile host="65bd71144e">
    <diagram id="FUvy7_6NKgnli6QbKez2" name="第 1 页">
        <mxGraphModel dx="2944" dy="2016" grid="1" gridSize="10" guides="1" tooltips="1" connect="1" arrows="1" fold="1" page="1" pageScale="1" pageWidth="827" pageHeight="1169" math="0" shadow="0">
            <root>
                <mxCell id="0"/>
                <mxCell id="1" parent="0"/>
                <mxCell id="2" value="" style="rounded=0;whiteSpace=wrap;html=1;" vertex="1" parent="1">
                    <mxGeometry x="60" y="40" width="680" height="440" as="geometry"/>
                </mxCell>
                <mxCell id="3" value="输入框" style="rounded=1;whiteSpace=wrap;html=1;" vertex="1" parent="1">
                    <mxGeometry x="110" y="410" width="530" height="60" as="geometry"/>
                </mxCell>
                <mxCell id="4" value="发送" style="rounded=1;whiteSpace=wrap;html=1;" vertex="1" parent="1">
                    <mxGeometry x="660" y="420" width="50" height="40" as="geometry"/>
                </mxCell>
                <mxCell id="6" value="其他" style="ellipse;whiteSpace=wrap;html=1;aspect=fixed;" vertex="1" parent="1">
                    <mxGeometry x="80" y="110" width="40" height="40" as="geometry"/>
                </mxCell>
                <mxCell id="10" value="我" style="ellipse;whiteSpace=wrap;html=1;aspect=fixed;" vertex="1" parent="1">
                    <mxGeometry x="660" y="150" width="40" height="40" as="geometry"/>
                </mxCell>
                <mxCell id="11" value="消息" style="rounded=1;whiteSpace=wrap;html=1;" vertex="1" parent="1">
                    <mxGeometry x="130" y="110" width="120" height="40" as="geometry"/>
                </mxCell>
                <mxCell id="12" value="消息" style="rounded=1;whiteSpace=wrap;html=1;" vertex="1" parent="1">
                    <mxGeometry x="530" y="150" width="120" height="40" as="geometry"/>
                </mxCell>
                <mxCell id="14" value="对方的名字" style="rounded=0;whiteSpace=wrap;html=1;" vertex="1" parent="1">
                    <mxGeometry x="330" y="50" width="120" height="40" as="geometry"/>
                </mxCell>
            </root>
        </mxGraphModel>
    </diagram>
</mxfile>